<?xml version="1.0" encoding="utf-8"?>
<!-- Generator: Adobe Illustrator 22.1.0, SVG Export Plug-In . SVG Version: 6.00 Build 0)  -->
<svg version="1.1" id="Layer_1" xmlns="http://www.w3.org/2000/svg" xmlns:xlink="http://www.w3.org/1999/xlink" x="0px" y="0px"
	 viewBox="0 0 222 59" style="enable-background:new 0 0 222 59;" xml:space="preserve">
<desc>Lovers and madmen</desc>
<rect width="2" height="59"/>
<rect x="3" width="1" height="59"/>
<rect x="6" width="1" height="59"/>
<rect x="11" width="1" height="59"/>
<rect x="15" width="2" height="59"/>
<rect x="18" width="3" height="59"/>
<rect x="22" width="1" height="59"/>
<rect x="26" width="4" height="59"/>
<rect x="31" width="1" height="59"/>
<rect x="33" width="4" height="59"/>
<rect x="38" width="1" height="59"/>
<rect x="41" width="1" height="59"/>
<rect x="44" width="1" height="59"/>
<rect x="46" width="2" height="59"/>
<rect x="50" width="1" height="59"/>
<rect x="55" width="1" height="59"/>
<rect x="58" width="1" height="59"/>
<rect x="61" width="4" height="59"/>
<rect x="66" width="1" height="59"/>
<rect x="68" width="4" height="59"/>
<rect x="74" width="1" height="59"/>
<rect x="77" width="2" height="59"/>
<rect x="80" width="2" height="59"/>
<rect x="84" width="2" height="59"/>
<rect x="88" width="1" height="59"/>
<rect x="91" width="1" height="59"/>
<rect x="93" width="2" height="59"/>
<rect x="99" width="2" height="59"/>
<rect x="105" width="1" height="59"/>
<rect x="107" width="1" height="59"/>
<rect x="110" width="1" height="59"/>
<rect x="115" width="1" height="59"/>
<rect x="118" width="2" height="59"/>
<rect x="121" width="2" height="59"/>
<rect x="124" width="2" height="59"/>
<rect x="128" width="2" height="59"/>
<rect x="132" width="4" height="59"/>
<rect x="137" width="3" height="59"/>
<rect x="141" width="1" height="59"/>
<rect x="143" width="1" height="59"/>
<rect x="146" width="1" height="59"/>
<rect x="148" width="2" height="59"/>
<rect x="154" width="1" height="59"/>
<rect x="159" width="1" height="59"/>
<rect x="162" width="2" height="59"/>
<rect x="165" width="4" height="59"/>
<rect x="170" width="3" height="59"/>
<rect x="174" width="1" height="59"/>
<rect x="176" width="1" height="59"/>
<rect x="178" width="2" height="59"/>
<rect x="182" width="1" height="59"/>
<rect x="187" width="2" height="59"/>
<rect x="193" width="1" height="59"/>
<rect x="195" width="1" height="59"/>
<rect x="198" width="1" height="59"/>
<rect x="203" width="1" height="59"/>
<rect x="206" width="2" height="59"/>
<rect x="209" width="2" height="59"/>
<rect x="214" width="3" height="59"/>
<rect x="218" width="1" height="59"/>
<rect x="220" width="2" height="59"/>
</svg>
